With: Roy Dupuis, Michael Ironside and Lorne Brass

Bob Durelle (Michael Ironside) is de leider van de motorbende The Devil Riders in Toronto. Hij wil zijn maten overtuigen om de hele bende aan te sluiten bij de beruchte The Triple Sixers, de grootste motorbende van Canada. Zij zoeken immers naar een manier om hun illegale operaties uit te breiden. Als Durelle de leiding weet over te nemen van alle tien Triple Sixers-fracties in Ontario en een distributiedeal weet te sluiten met een Braziliaanse drugsbaron, wordt hij met open armen ontvangen in de Triple Sixers-gemeenschap. Zijn mede-Devil Riders, onder leiding van Ross Desbiens (Roy Dupuis), zijn het hier niet mee eens en besluiten zich af te scheiden van Durelle. Dit leidt tot gewelddadige confrontaties.

6 Parts,
This show is about an outlaw biker group, The Triple Sixers. Characterized as one of the largest outlaw biker gangs in the world...
 
http://www.imdb.com/title/tt0299283 
http://www.imdb.com/title/tt0337549

------------------------ Dutch Friends ------------------------
---------------------------------------------------------------
- Bezoek ook eens mijn vrienden op:  http://www.Film-Test.nl --
----- voor mijn Nederlandse Sync. ondertitels ---- en meer ----
------- http://www.Film-Test.nl ---- voor Films en meer -------
---------------------------------------------------------------

General:

Complete name                    : The Last ChapterThe Last Chapter 01.avi
Format                           : AVI
Format/Info                      : Audio Video Interleave
File size                        : 1.67 GiB
Duration                         : 1h 29mn
Overall bit rate                 : 2 688 Kbps

Video:

Format                           : MPEG-4 Visual
Format profile                   : Simple@L3
Format settings, BVOP            : No
Format settings, QPel            : No
Format settings, GMC             : No warppoints
Format settings, Matrix          : Default (H.263)
Codec ID                         : XVID
Codec ID/Hint                    : XviD
Duration                         : 1h 29mn
Bit rate                         : 2 229 Kbps
Width                            : 704 pixels
Height                           : 396 pixels
Display aspect ratio             : 16:9
Frame rate                       : 25.000 fps
Color space                      : YUV
Chroma subsampling               : 4:2:0
Bit depth                        : 8 bits
Scan type                        : Progressive
Compression mode                 : Lossy
Bits/(Pixel*Frame)               : 0.320
Stream size                      : 1.39 GiB (83%)
Writing library                  : XviD 1.1.2 (UTC 2006-11-01)

Audio:

Format                           : AC-3
Format/Info                      : Audio Coding 3
Mode extension                   : CM (complete main)
Codec ID                         : 2000
Duration                         : 1h 29mn
Bit rate mode                    : Constant
Bit rate                         : 448 Kbps
Channel(s)                       : 6 channels
Channel positions                : Front: L C R, Side: L R, LFE
Sampling rate                    : 48.0 KHz
Bit depth                        : 16 bits
Compression mode                 : Lossy
Stream size                      : 286 MiB (17%)
Alignment                        : Aligned on interleaves
Interleave, duration             : 32 ms (0.80 video frame)
Interleave, preload duration     : 288 ms